{"accessors":[{"bufferView":0,"byteOffset":0,"componentType":5126,"count":210,"max":[30.500839,22.88596,112.266418],"min":[-31.107685,-8.58041,92.760582],"normalized":false,"type":"VEC3"},{"bufferView":1,"byteOffset":0,"componentType":5126,"count":210,"max":[1,0.000046,1,-1],"min":[-0.000015,-1,-0.000046,-1],"normalized":false,"type":"VEC4"},{"bufferView":2,"byteOffset":0,"componentType":5126,"count":210,"max":[1,1,1],"min":[-1,-1,-1],"normalized":false,"type":"VEC3"},{"bufferView":3,"byteOffset":0,"componentType":5126,"count":210,"max":[1,1],"min":[0,0],"normalized":false,"type":"VEC2"},{"bufferView":4,"byteOffset":0,"componentType":5125,"count":210,"max":[209],"min":[0],"normalized":false,"type":"SCALAR"}],"asset":{"generator":"Godot Engine v4.1.1.stable.official@bd6af8e0ea69167dd0627f3bd54f9105bda0f8b5","version":"2.0"},"bufferViews":[{"buffer":0,"byteLength":2520,"byteOffset":0},{"buffer":0,"byteLength":3360,"byteOffset":2520},{"buffer":0,"byteLength":2520,"byteOffset":5880},{"buffer":0,"byteLength":1680,"byteOffset":8400},{"buffer":0,"byteLength":840,"byteOffset":10080}],"buffers":[{"byteLength":10920,"uri":"Buildings30.bin"}],"materials":[{"extensions":{},"pbrMetallicRoughness":{"baseColorFactor":[0.99999988079071,0.99999988079071,0.99999988079071,1],"metallicFactor":0,"roughnessFactor":1}}],"meshes":[{"extras":{"targetNames":[]},"primitives":[{"attributes":{"NORMAL":2,"POSITION":0,"TANGENT":1,"TEXCOORD_0":3},"indices":4,"material":0,"mode":4}]}],"nodes":[{"children":[1],"extensions":{},"name":"Buildings3"},{"extensions":{},"mesh":0,"name":"Buildings","scale":[0.734000027179718,0.523000001907349,0.416999995708466]}],"scene":0,"scenes":[{"nodes":[0]}]}