# Blender 3.6.0
# www.blender.org
mtllib SlashFX.mtl
o Slash
v -0.315298 0.055171 -0.243734
v -1.065473 0.060658 -0.290924
v -0.971063 -0.008640 -0.286700
v -0.696143 -0.005726 0.390679
v -0.311228 0.014334 -0.037980
v -0.219117 0.076374 0.156284
v 0.002191 0.029962 0.589946
v 0.022995 0.032183 0.209923
v 0.693027 0.045350 0.359538
v 0.682727 0.019779 0.339917
v 0.594136 0.051306 0.174869
v 1.184200 0.061895 -0.353582
v 1.207633 0.057863 -0.342742
v 1.183096 0.058836 -0.354175
vn 0.0918 0.9901 -0.1057
vn 0.6868 0.0456 -0.7254
vn -0.8830 0.2116 0.4189
vn -0.3549 -0.9231 0.1480
vn -0.5112 -0.1146 0.8518
vn 0.0445 -0.0306 0.9985
vn 0.0303 -0.9448 -0.3264
vn 0.3100 -0.9323 -0.1864
vn -0.2064 0.1461 -0.9675
vn 0.2815 -0.9041 0.3216
vn 0.5365 0.3429 0.7711
vn -0.2550 0.9200 -0.2977
vn 0.9130 -0.0781 0.4004
vn -0.5062 -0.6169 -0.6027
vt 0.365763 0.082461
vt 0.000000 0.038954
vt 0.000000 0.494503
vt 0.000000 0.609926
vt 0.250000 0.504303
vt 0.000000 0.979491
vt 0.500000 0.487840
vt 0.500000 0.959874
vt 0.250000 0.968339
vt 0.750000 0.019034
vt 0.500000 0.000000
vt 0.750000 0.591839
vt 0.750000 0.469482
vt 1.000000 0.050226
vt 1.000000 0.504421
vt 1.000000 0.974748
vt 0.750000 0.962475
vt 0.250000 0.012048
vt 1.000000 0.000000
s 1
f 6/1/1 1/2/2 2/3/3
f 3/4/4 4/5/5 2/3/3
f 1/6/2 4/5/5 3/4/4
f 7/7/6 6/1/1 4/5/5
f 8/8/7 4/5/5 5/9/8
f 6/1/1 11/10/9 8/11/7
f 8/8/7 10/12/10 7/7/6
f 9/13/11 12/14/12 11/10/9
f 10/12/10 13/15/13 9/13/11
f 14/16/14 10/12/10 11/17/9
f 1/2/2 6/1/1 5/18/8
f 4/5/5 6/1/1 2/3/3
f 11/10/9 6/1/1 7/7/6 9/13/11
f 1/6/2 5/9/8 4/5/5
f 5/18/8 6/1/1 8/11/7
f 4/5/5 8/8/7 7/7/6
f 7/7/6 10/12/10 9/13/11
f 11/17/9 10/12/10 8/8/7
f 11/10/9 12/14/12 14/19/14
f 13/15/13 12/14/12 9/13/11
f 10/12/10 14/16/14 13/15/13
o BezierCircle
v 1.571334 0.003709 -0.003691
v 1.578140 0.002159 -0.020461
v 1.592108 -0.000070 -0.034011
v 1.612509 -0.002822 -0.044679
v 1.638615 -0.005941 -0.052804
v 1.669696 -0.009271 -0.058722
v 1.705023 -0.012655 -0.062772
v 1.743867 -0.015938 -0.065293
v 1.785500 -0.018963 -0.066621
v 1.829192 -0.021575 -0.067097
v 1.874214 -0.023618 -0.067056
v 1.919838 -0.024934 -0.066838
v 1.965334 -0.025369 -0.066781
v 2.010030 -0.024644 -0.067003
v 2.053409 -0.022765 -0.067195
v 2.094978 -0.020003 -0.067050
v 2.134242 -0.016628 -0.066262
v 2.170709 -0.012910 -0.064523
v 2.203884 -0.009120 -0.061528
v 2.233274 -0.005527 -0.056969
v 2.258384 -0.002404 -0.050541
v 2.278721 -0.000019 -0.041936
v 2.293791 0.001357 -0.030849
v 2.303100 0.001453 -0.016972
v 2.306154 0.000000 0.000000
v 2.302092 -0.001339 0.016574
v 2.290948 -0.000921 0.029354
v 2.273573 0.000947 0.038793
v 2.250816 0.003962 0.045344
v 2.223529 0.007818 0.049460
v 2.192562 0.012209 0.051594
v 2.158765 0.016833 0.052200
v 2.122989 0.021382 0.051731
v 2.086085 0.025552 0.050640
v 2.048902 0.029039 0.049380
v 2.012292 0.031536 0.048404
v 1.977104 0.032741 0.048166
v 1.934003 0.032723 0.048846
v 1.888550 0.031680 0.049937
v 1.841958 0.029789 0.051043
v 1.795438 0.027227 0.051768
v 1.750203 0.024169 0.051716
v 1.707464 0.020793 0.050490
v 1.668434 0.017273 0.047695
v 1.634325 0.013787 0.042934
v 1.606348 0.010512 0.035811
v 1.585716 0.007623 0.025930
v 1.573641 0.005297 0.012895
l 15 16
l 16 17
l 17 18
l 18 19
l 19 20
l 20 21
l 21 22
l 22 23
l 23 24
l 24 25
l 25 26
l 26 27
l 27 28
l 28 29
l 29 30
l 30 31
l 31 32
l 32 33
l 33 34
l 34 35
l 35 36
l 36 37
l 37 38
l 38 39
l 39 40
l 40 41
l 41 42
l 42 43
l 43 44
l 44 45
l 45 46
l 46 47
l 47 48
l 48 49
l 49 50
l 50 51
l 51 52
l 52 53
l 53 54
l 54 55
l 55 56
l 56 57
l 57 58
l 58 59
l 59 60
l 60 61
l 61 62
l 62 15
