# Blender 3.6.0
# www.blender.org
mtllib Dust_Wave.mtl
o Circle
v -0.807827 0.144186 0.807827
v -0.807827 0.144186 -0.807827
v 0.807827 0.144186 -0.807827
v 0.807826 0.144186 0.807827
v 1.225610 0.144186 0.000000
v -0.000000 0.144186 1.089900
v -1.210914 0.168538 -0.000454
v 0.001759 0.003277 -0.357469
v -0.371683 -0.000229 -0.000984
v -0.000123 -0.000229 0.370577
v 0.371437 -0.000229 -0.000984
v 0.246212 -0.000229 0.245352
v 0.246212 -0.000229 -0.247319
v -0.246458 -0.000229 -0.247319
v -0.246458 -0.000229 0.245352
v -0.583346 0.045375 -0.002829
v -0.000000 0.144186 -1.168033
v -0.795010 0.090979 -0.004673
v -0.529616 0.071945 -0.530021
v 0.529484 0.071945 -0.530021
v 0.802260 0.071945 -0.000471
v 0.529484 0.071945 0.529079
v 0.000879 0.073706 -0.807308
v -0.529616 0.071945 0.529079
v -0.000066 0.071945 0.774689
v -0.122350 0.001524 -0.302394
v -1.009370 0.156362 0.403686
v 0.403913 0.144186 -0.987930
v 1.016718 0.144186 -0.403913
v 1.016718 0.144186 0.403913
v 0.123045 -0.000229 0.307964
v 0.308825 -0.000229 -0.124151
v 0.123986 0.001524 -0.302394
v -0.309070 -0.000229 -0.124151
v 0.308825 -0.000229 0.122184
v -0.123290 -0.000229 0.307964
v -0.309070 -0.000229 0.122184
v -0.403913 0.144186 0.948863
v -0.403913 0.144186 -0.987930
v -0.388037 0.035858 -0.388670
v 0.387848 0.035858 -0.388670
v 0.387848 0.035858 0.387215
v -0.388037 0.035858 0.387215
v -1.009370 0.156362 -0.404140
v 0.403913 0.144186 0.948863
v 0.000439 0.108946 -0.987670
v -1.002962 0.129759 -0.002564
v 1.013935 0.108065 -0.000235
v -0.000033 0.108065 0.932294
v -0.668721 0.108065 -0.668924
v 0.668655 0.108065 -0.668924
v 0.586848 0.035858 -0.000727
v 0.668655 0.108065 0.668453
v 0.001319 0.038491 -0.582388
v -0.668721 0.108065 0.668453
v -0.000095 0.035858 0.572633
v -0.264369 0.072825 -0.668664
v 0.265181 0.072825 -0.668664
v 0.665872 0.071945 -0.265246
v 0.665872 0.071945 0.264304
v 0.264709 0.071945 0.651884
v -0.264841 0.071945 0.651884
v -0.662313 0.081462 0.262203
v -0.662313 0.081462 -0.267347
v -0.835842 0.118912 0.332945
v -0.334377 0.108065 0.800373
v -0.194066 0.035858 0.479924
v 0.193877 0.035858 0.479924
v 0.334311 0.108065 0.800374
v 0.841295 0.108065 0.334109
v 0.487348 0.035858 0.193244
v 0.487348 0.035858 -0.194698
v 0.841295 0.108065 -0.334580
v 0.334547 0.108506 -0.828297
v 0.194583 0.037175 -0.485529
v -0.193359 0.037175 -0.485529
v -0.334141 0.108506 -0.828297
v -0.835842 0.118912 -0.335744
v -0.485692 0.040617 -0.195749
v -0.485692 0.040617 0.192193
vn -0.1928 -0.9790 0.0659
vn -0.1922 -0.9791 -0.0665
vn -0.1884 -0.9800 -0.0636
vn -0.0854 -0.9807 -0.1761
vn -0.0665 -0.9850 -0.1594
vn 0.0802 -0.9830 -0.1649
vn 0.0817 -0.9805 -0.1788
vn 0.1678 -0.9820 -0.0866
vn 0.1650 -0.9827 -0.0843
vn 0.1651 -0.9826 0.0849
vn 0.1678 -0.9820 0.0867
vn 0.0891 -0.9737 0.2095
vn 0.0849 -0.9812 0.1733
vn -0.0805 -0.9819 0.1714
vn -0.0716 -0.9785 0.1937
vn -0.1848 -0.9810 0.0588
vn -0.1895 -0.9800 0.0612
vn -0.1881 -0.9801 0.0633
vn -0.1843 -0.9810 0.0613
vn -0.0798 -0.9790 0.1878
vn -0.0891 -0.9737 0.2096
vn -0.0784 -0.9741 0.2121
vn -0.0831 -0.9820 0.1696
vn -0.0849 -0.9812 0.1733
vn -0.0817 -0.9814 0.1739
vn 0.0831 -0.9820 0.1696
vn 0.0805 -0.9819 0.1713
vn 0.0817 -0.9814 0.1739
vn 0.0798 -0.9790 0.1878
vn 0.0716 -0.9785 0.1936
vn 0.0784 -0.9741 0.2121
vn 0.1679 -0.9820 0.0866
vn 0.1676 -0.9821 0.0865
vn 0.1676 -0.9820 0.0866
vn 0.1653 -0.9826 0.0845
vn 0.1648 -0.9827 0.0842
vn 0.1647 -0.9827 0.0847
vn 0.1655 -0.9826 -0.0846
vn 0.1653 -0.9826 -0.0850
vn 0.1649 -0.9827 -0.0848
vn 0.1681 -0.9820 -0.0867
vn 0.1680 -0.9820 -0.0868
vn 0.1678 -0.9820 -0.0867
vn 0.0855 -0.9806 -0.1761
vn 0.0904 -0.9784 -0.1858
vn 0.0854 -0.9787 -0.1868
vn 0.0723 -0.9828 -0.1700
vn 0.0672 -0.9849 -0.1595
vn 0.0765 -0.9845 -0.1578
vn -0.0717 -0.9828 -0.1703
vn -0.0798 -0.9831 -0.1650
vn -0.0760 -0.9846 -0.1577
vn -0.0816 -0.9805 -0.1787
vn -0.0852 -0.9787 -0.1866
vn -0.0900 -0.9785 -0.1855
vn -0.1896 -0.9799 -0.0619
vn -0.1856 -0.9808 -0.0599
vn -0.1852 -0.9807 -0.0620
vn -0.1842 -0.9797 -0.0787
vn -0.2008 -0.9758 -0.0871
vn -0.2037 -0.9764 -0.0724
vn -0.2047 -0.9762 0.0719
vn -0.2019 -0.9755 0.0871
vn -0.1847 -0.9797 0.0784
vt 0.680090 0.657882
vt 0.739132 0.576973
vt 0.826929 0.604976
vt 0.745944 0.715317
vt 0.521740 0.739519
vt 0.529792 0.826753
vt 0.394626 0.827848
vt 0.422432 0.740247
vt 0.538492 0.912046
vt 0.547191 0.997338
vt 0.339971 1.000000
vt 0.367299 0.913924
vt 0.231843 0.810894
vt 0.282223 0.748757
vt 0.341935 0.681169
vt 0.261437 0.622090
vt 0.353056 0.574515
vt 0.401647 0.613581
vt 0.260302 0.522819
vt 0.170793 0.532606
vt 0.171766 0.395546
vt 0.259167 0.423547
vt 0.091136 0.537950
vt 0.011478 0.543294
vt -0.000000 0.340525
vt 0.085883 0.368036
vt 0.186028 0.227210
vt 0.286173 0.086384
vt 0.330519 0.172769
vt 0.251143 0.284158
vt 0.317405 0.342115
vt 0.375643 0.260683
vt 0.420767 0.348597
vt 0.383668 0.400073
vt 0.475755 0.260478
vt 0.467294 0.172722
vt 0.604069 0.172674
vt 0.575868 0.260274
vt 0.458973 0.086494
vt 0.450651 0.000267
vt 0.659476 0.000535
vt 0.631773 0.086604
vt 0.755974 0.195316
vt 0.880175 0.304027
vt 0.815752 0.337140
vt 0.709910 0.254907
vt 0.654526 0.319939
vt 0.733183 0.379605
vt 0.650615 0.422070
vt 0.599141 0.384972
vt 0.736158 0.478289
vt 0.821340 0.471058
vt 0.896682 0.468260
vt 0.972023 0.465462
vt 0.999448 0.660009
vt 0.913188 0.632493
vt 0.811436 0.771330
vt 0.709685 0.910168
vt 0.664959 0.825659
vt 0.876929 0.827343
vt 0.754410 0.994676
vt 0.944598 0.270914
vt 0.650975 0.485520
vt 0.651336 0.548971
vt 0.547666 0.347873
vt 0.802037 0.135724
vt 0.241827 -0.000000
vt 0.484217 0.348235
vt 0.346568 0.451549
vt 0.120913 0.170263
vt 0.169819 0.669665
vt 0.096388 0.707864
vt 0.022957 0.746063
vt 0.349812 0.513032
vt 0.450238 0.652646
vt 0.181464 0.873031
vt 0.513687 0.652284
vt 0.577137 0.651922
vt 0.621048 0.738791
vt 0.614236 0.600447
s 0
usemtl Material.001
f 80/1/1 43/2/1 24/3/1 63/4/1
f 79/5/2 64/6/2 19/7/2 40/8/2
f 78/9/3 44/10/3 2/11/3 50/12/3
f 77/13/4 57/14/4 19/7/4 50/12/4
f 76/15/5 54/16/5 8/17/5 26/18/5
f 75/19/6 58/20/6 20/21/6 41/22/6
f 74/23/7 28/24/7 3/25/7 51/26/7
f 73/27/8 48/28/8 21/29/8 59/30/8
f 72/31/9 52/32/9 11/33/9 32/34/9
f 71/35/10 60/36/10 22/37/10 42/38/10
f 70/39/11 30/40/11 4/41/11 53/42/11
f 69/43/12 49/44/12 25/45/12 61/46/12
f 68/47/13 56/48/13 10/49/13 31/50/13
f 67/51/14 62/52/14 24/3/14 43/2/14
f 66/53/15 38/54/15 1/55/15 55/56/15
f 65/57/16 47/58/16 18/59/16 63/4/16
f 55/56/17 65/57/17 63/4/17 24/3/17
f 1/55/18 27/60/18 65/57/18 55/56/18
f 27/60/19 7/61/19 47/58/19 65/57/19
f 62/52/20 66/53/20 55/56/20 24/3/20
f 25/45/21 49/44/21 66/53/21 62/52/21
f 49/44/22 6/62/22 38/54/22 66/53/22
f 36/63/23 67/51/23 43/2/23 15/64/23
f 10/49/24 56/48/24 67/51/24 36/63/24
f 56/48/25 25/45/25 62/52/25 67/51/25
f 42/38/26 68/47/26 31/50/26 12/65/26
f 22/37/27 61/46/27 68/47/27 42/38/27
f 61/46/28 25/45/28 56/48/28 68/47/28
f 53/42/29 69/43/29 61/46/29 22/37/29
f 4/41/30 45/66/30 69/43/30 53/42/30
f 45/66/31 6/62/31 49/44/31 69/43/31
f 60/36/32 70/39/32 53/42/32 22/37/32
f 21/29/33 48/28/33 70/39/33 60/36/33
f 48/28/34 5/67/34 30/40/34 70/39/34
f 35/68/35 71/35/35 42/38/35 12/65/35
f 11/33/36 52/32/36 71/35/36 35/68/36
f 52/32/37 21/29/37 60/36/37 71/35/37
f 41/22/38 72/31/38 32/34/38 13/69/38
f 20/21/39 59/30/39 72/31/39 41/22/39
f 59/30/40 21/29/40 52/32/40 72/31/40
f 51/26/41 73/27/41 59/30/41 20/21/41
f 3/25/42 29/70/42 73/27/42 51/26/42
f 29/70/43 5/67/43 48/28/43 73/27/43
f 58/20/44 74/23/44 51/26/44 20/21/44
f 23/71/45 46/72/45 74/23/45 58/20/45
f 46/72/46 17/73/46 28/24/46 74/23/46
f 33/74/47 75/19/47 41/22/47 13/69/47
f 8/17/48 54/16/48 75/19/48 33/74/48
f 54/16/49 23/71/49 58/20/49 75/19/49
f 40/8/50 76/15/50 26/18/50 14/75/50
f 19/7/51 57/14/51 76/15/51 40/8/51
f 57/14/52 23/71/52 54/16/52 76/15/52
f 39/76/53 77/13/53 50/12/53 2/11/53
f 17/73/54 46/72/54 77/13/54 39/76/54
f 46/72/55 23/71/55 57/14/55 77/13/55
f 64/6/56 78/9/56 50/12/56 19/7/56
f 18/59/57 47/58/57 78/9/57 64/6/57
f 47/58/58 7/61/58 44/10/58 78/9/58
f 34/77/59 79/5/59 40/8/59 14/75/59
f 9/78/60 16/79/60 79/5/60 34/77/60
f 16/79/61 18/59/61 64/6/61 79/5/61
f 16/79/62 80/1/62 63/4/62 18/59/62
f 9/78/63 37/80/63 80/1/63 16/79/63
f 37/80/64 15/64/64 43/2/64 80/1/64
