# Blender 3.6.0
# www.blender.org
mtllib SlashFX.mtl
o Circle
v -0.000000 0.000000 -1.173325
v -0.484997 0.000000 -1.082663
v -0.904492 0.000000 -0.822923
v -1.201831 0.000000 -0.429183
v -1.336856 0.000000 0.045380
v 1.336856 0.000000 0.045380
v 1.201831 0.000000 -0.429183
v 0.904492 0.000000 -0.822923
v 0.484997 0.000000 -1.082663
v 0.000659 0.000000 -0.339558
v -0.092856 0.000000 -0.322077
v -0.173741 0.000000 -0.271995
v -0.231073 0.000000 -0.196076
v -0.297053 0.000000 -0.009277
v 0.309400 0.000000 -0.003029
v -0.694745 0.000000 -0.952793
v -0.805234 0.000000 0.038698
v 0.232391 0.000000 -0.196076
v 0.175059 0.000000 -0.271995
v 0.094174 0.000000 -0.322077
v -0.242499 0.000000 -1.127994
v -0.716452 0.000000 -0.312629
v -0.539117 0.000000 -0.547459
v -0.288926 0.000000 -0.702370
v 0.000329 0.000000 -0.756442
v 0.289585 0.000000 -0.702370
v 0.539776 0.000000 -0.547459
v 0.717111 0.000000 -0.312629
v 0.811408 0.000000 0.041580
v -1.053162 0.000000 -0.626053
v -1.269344 0.000000 -0.191901
v 1.269344 0.000000 -0.191901
v 1.053162 0.000000 -0.626053
v 0.694745 0.000000 -0.952793
v 0.242499 0.000000 -1.127994
v -0.046098 0.000000 -0.330818
v -0.133299 0.000000 -0.297036
v -0.202407 0.000000 -0.234036
v -0.264063 0.000000 -0.102676
v 0.270895 0.000000 -0.099552
v -0.551143 0.000000 0.014710
v 0.560404 0.000000 0.019276
v -1.071045 0.000000 0.042039
v 0.203725 0.000000 -0.234036
v 0.134616 0.000000 -0.297036
v 0.047416 0.000000 -0.330818
v 0.387291 0.000000 -0.892517
v 0.000165 0.000000 -0.964883
v 0.959471 0.000000 -0.370906
v -0.959142 0.000000 -0.370906
v 0.722134 0.000000 -0.685191
v -0.386962 0.000000 -0.892517
v -0.721805 0.000000 -0.685191
v 1.074132 0.000000 0.043480
v -0.473762 0.000000 -0.254353
v -0.356429 0.000000 -0.409727
v -0.190891 0.000000 -0.512224
v 0.000494 0.000000 -0.548000
v 0.191880 0.000000 -0.512224
v 0.357417 0.000000 -0.409727
v 0.474751 0.000000 -0.254353
v -0.760843 0.000000 -0.136966
v -0.627784 0.000000 -0.430044
v -0.414022 0.000000 -0.624915
v -0.144298 0.000000 -0.729406
v 0.144957 0.000000 -0.729406
v 0.414681 0.000000 -0.624915
v 0.628443 0.000000 -0.430044
v 0.764260 0.000000 -0.135525
v 0.193728 0.000000 -0.928700
v 0.554713 0.000000 -0.788854
v 0.840803 0.000000 -0.528048
v -1.015093 0.000000 -0.164433
v 0.517578 0.000000 -0.117538
v 0.416084 0.000000 -0.332040
v 0.274649 0.000000 -0.460975
v 0.096187 0.000000 -0.530112
v -0.095198 0.000000 -0.530112
v -0.840473 0.000000 -0.528048
v 1.016802 0.000000 -0.163713
v -0.512453 0.000000 -0.119821
v -0.415096 0.000000 -0.332040
v -0.273660 0.000000 -0.460975
v -0.554383 0.000000 -0.788854
v -0.193399 0.000000 -0.928700
vn -0.0000 -1.0000 -0.0000
vt 0.437639 0.468289
vt 0.437639 0.540163
vt 0.378377 0.540163
vt 0.378377 0.468289
vt 0.319115 0.468289
vt 0.319115 0.540163
vt 0.259854 0.540163
vt 0.259854 0.468289
vt 0.319115 0.611401
vt 0.319115 0.682639
vt 0.259854 0.682639
vt 0.259854 0.611401
vt 0.200592 0.611401
vt 0.200592 0.682639
vt 0.141330 0.682639
vt 0.141330 0.611401
vt 0.070373 0.611401
vt 0.070373 0.682639
vt 0.924345 0.468289
vt 0.996219 0.468289
vt 0.996219 0.540163
vt 0.924345 0.540163
vt 0.200592 0.468289
vt 0.200592 0.540163
vt 0.437639 0.611401
vt 0.496901 0.611401
vt 0.496901 0.682639
vt 0.437639 0.682639
vt 0.556162 0.611401
vt 0.615424 0.611401
vt 0.615424 0.682639
vt 0.556162 0.682639
vt 0.674686 0.611401
vt 0.733948 0.611401
vt 0.733948 0.682639
vt 0.674686 0.682639
vt 0.793210 0.611401
vt 0.852471 0.611401
vt 0.852471 0.682639
vt 0.793210 0.682639
vt 0.924345 0.611401
vt 0.852471 0.540163
vt 0.070373 0.468289
vt 0.070373 0.540163
vt -0.000583 0.540163
vt -0.000583 0.468289
vt 0.793210 0.468289
vt 0.793210 0.540163
vt 0.733948 0.540163
vt 0.733948 0.468289
vt 0.674686 0.468289
vt 0.674686 0.540163
vt 0.615424 0.540163
vt 0.615424 0.468289
vt 0.556162 0.468289
vt 0.556162 0.540163
vt 0.496901 0.540163
vt 0.496901 0.468289
vt 0.556162 0.396415
vt 0.496901 0.396415
vt 0.615424 0.396415
vt 0.674686 0.396415
vt 0.733948 0.396415
vt 0.793210 0.396415
vt 0.852471 0.396415
vt 0.852471 0.468289
vt 0.070373 0.396415
vt -0.000583 0.396415
vt 0.141330 0.396415
vt 0.141330 0.468289
vt 0.141330 0.540163
vt 0.996219 0.611401
vt 0.996219 0.682639
vt 0.924345 0.682639
vt 0.378377 0.611401
vt 0.378377 0.682639
vt 0.200592 0.396415
vt 0.259854 0.396415
vt 0.924345 0.396415
vt 0.996219 0.396415
vt -0.000583 0.611401
vt -0.000583 0.682639
vt 0.319115 0.396415
vt 0.378377 0.396415
vt 0.437639 0.396415
s 0
usemtl Material.001
f 85/1/1 65/2/1 24/3/1 52/4/1
f 84/5/1 64/6/1 23/7/1 53/8/1
f 83/9/1 37/10/1 12/11/1 56/12/1
f 82/13/1 38/14/1 13/15/1 55/16/1
f 81/17/1 55/16/1 13/15/1 39/18/1
f 80/19/1 54/20/1 29/21/1 69/22/1
f 79/23/1 53/8/1 23/7/1 63/24/1
f 78/25/1 58/26/1 10/27/1 36/28/1
f 77/29/1 59/30/1 20/31/1 46/32/1
f 76/33/1 60/34/1 19/35/1 45/36/1
f 75/37/1 61/38/1 18/39/1 44/40/1
f 74/41/1 61/38/1 28/42/1 69/22/1
f 73/43/1 62/44/1 17/45/1 43/46/1
f 72/47/1 68/48/1 27/49/1 51/50/1
f 71/51/1 67/52/1 26/53/1 47/54/1
f 70/55/1 66/56/1 25/57/1 48/58/1
f 35/59/1 70/55/1 48/58/1 1/60/1
f 9/61/1 47/54/1 70/55/1 35/59/1
f 47/54/1 26/53/1 66/56/1 70/55/1
f 34/62/1 71/51/1 47/54/1 9/61/1
f 8/63/1 51/50/1 71/51/1 34/62/1
f 51/50/1 27/49/1 67/52/1 71/51/1
f 33/64/1 72/47/1 51/50/1 8/63/1
f 7/65/1 49/66/1 72/47/1 33/64/1
f 49/66/1 28/42/1 68/48/1 72/47/1
f 31/67/1 73/43/1 43/46/1 5/68/1
f 4/69/1 50/70/1 73/43/1 31/67/1
f 50/70/1 22/71/1 62/44/1 73/43/1
f 42/72/1 74/41/1 69/22/1 29/21/1
f 15/73/1 40/74/1 74/41/1 42/72/1
f 40/74/1 18/39/1 61/38/1 74/41/1
f 60/34/1 75/37/1 44/40/1 19/35/1
f 27/49/1 68/48/1 75/37/1 60/34/1
f 68/48/1 28/42/1 61/38/1 75/37/1
f 59/30/1 76/33/1 45/36/1 20/31/1
f 26/53/1 67/52/1 76/33/1 59/30/1
f 67/52/1 27/49/1 60/34/1 76/33/1
f 58/26/1 77/29/1 46/32/1 10/27/1
f 25/57/1 66/56/1 77/29/1 58/26/1
f 66/56/1 26/53/1 59/30/1 77/29/1
f 57/75/1 78/25/1 36/28/1 11/76/1
f 24/3/1 65/2/1 78/25/1 57/75/1
f 65/2/1 25/57/1 58/26/1 78/25/1
f 50/70/1 79/23/1 63/24/1 22/71/1
f 4/69/1 30/77/1 79/23/1 50/70/1
f 30/77/1 3/78/1 53/8/1 79/23/1
f 49/66/1 80/19/1 69/22/1 28/42/1
f 7/65/1 32/79/1 80/19/1 49/66/1
f 32/79/1 6/80/1 54/20/1 80/19/1
f 41/81/1 81/17/1 39/18/1 14/82/1
f 17/45/1 62/44/1 81/17/1 41/81/1
f 62/44/1 22/71/1 55/16/1 81/17/1
f 63/24/1 82/13/1 55/16/1 22/71/1
f 23/7/1 56/12/1 82/13/1 63/24/1
f 56/12/1 12/11/1 38/14/1 82/13/1
f 64/6/1 83/9/1 56/12/1 23/7/1
f 24/3/1 57/75/1 83/9/1 64/6/1
f 57/75/1 11/76/1 37/10/1 83/9/1
f 16/83/1 84/5/1 53/8/1 3/78/1
f 2/84/1 52/4/1 84/5/1 16/83/1
f 52/4/1 24/3/1 64/6/1 84/5/1
f 21/85/1 85/1/1 52/4/1 2/84/1
f 1/60/1 48/58/1 85/1/1 21/85/1
f 48/58/1 25/57/1 65/2/1 85/1/1
